<?xml version="1.0" encoding="utf-8"?>
<!-- Generator: Adobe Illustrator 23.0.3, SVG Export Plug-In . SVG Version: 6.00 Build 0)  -->
<svg version="1.1" id="Layer_1" xmlns="http://www.w3.org/2000/svg" xmlns:xlink="http://www.w3.org/1999/xlink" x="0px" y="0px"
	 viewBox="0 0 595.28 841.89" style="enable-background:new 0 0 595.28 841.89;" xml:space="preserve">
<style type="text/css">
	.st0{fill:#1E1E1E;}
	.st1{fill:#898989;}
	.st2{fill:#F04F4E;stroke:#F04F4E;stroke-width:15.7387;stroke-miterlimit:10;}
	.st3{fill:#FFFFFF;stroke:#F04F4E;stroke-width:15.7387;stroke-miterlimit:10;}
	.st4{fill:#FFFFFF;}
	.st5{fill:#232323;}
	.st6{fill:#F04F4E;}
	.st7{fill:#FBFCF9;}
</style>
<rect x="-154.75" y="-229.91" class="st0" width="904.77" height="1295.73"/>
<path class="st1" d="M64.8,387.87h150.86l120.93-73.17l-4.82-45.09H105.73c-1.35,0.05-3.22,0.18-5.42,0.53
	c-2.54,0.39-7.88,1.23-13.6,4.25c-7.52,3.97-11.69,9.34-13.72,12.02c-2,2.64-5.01,6.68-6.8,12.87c-1.78,6.15-1.5,11.45-1.09,14.57
	l-0.3,72.24"/>
<path class="st2" d="M390.28,236.38h117.53c2.66,0.21,6.33,0.72,10.5,2.06c7.56,2.43,12.5,6.19,14.02,7.41
	c4.9,3.9,7.75,7.94,8.92,9.71c3.25,4.93,4.66,9.4,5.22,11.41c0.87,3.13,1.21,5.86,1.36,7.89c0,0,0,254.98,0,291.89
	c0,35.33-35.9,39.58-35.9,39.58s-412.82,0.36-415.73,0s-5.22-1.34-7.41-1.94c-2.19-0.61-7.16-3.64-8.86-4.74
	c-1.7-1.09-3.28-1.46-10.93-10.32s-8.13-21.98-8.13-21.98V395.8c0,0,0-5.18,2.25-7.93c0,0,6.62-26.71,37.7-28.98l131.45,0.32
	c0,0,46.46-1.46,76.9-58.77c16.17-30.44,34.38-55.65,79.17-63.89C388.98,236.44,389.63,236.38,390.28,236.38z"/>
<path class="st3" d="M513.12,222.46l-120.08,0c-15.98,0-30.09,7.79-38.78,19.72L204.65,517.16c-4.03,7.44-11.86,12.07-20.38,12.07
	H78.02c-25.94,0-48.03,19.99-48.95,45.68c-0.97,26.97,20.8,49.13,47.8,49.13h149.49c0,0,1.39,0,2.1,0c22.64,0,36.52-16,46.52-36.55
	l140.14-258.15c4.03-7.43,11.86-12.07,20.38-12.07h78.76c27,0,48.77-22.16,47.8-49.13C561.14,242.45,539.05,222.46,513.12,222.46z"
	/>
<path class="st4" d="M524.84,550.77c-4.02-2.39-8.71-3.77-13.75-3.77v-0.1H388.92c-9.58,0-15.68-10.22-11.14-18.65l77.25-143.36
	c2.21-4.1,6.49-6.65,11.14-6.65h44.19v-0.09c0.24,0.01,0.48,0.04,0.72,0.04c14.29,0,25.97-11.17,26.8-25.24
	c0.02-0.54,0.05-1.07,0.05-1.61c0-9.81-5.26-18.38-13.1-23.08c-4.02-2.39-8.71-3.77-13.75-3.77c-0.24,0-0.48,0.04-0.72,0.04v-0.09
	h-68.93v0.04c-12.45,0.3-22.95,8.39-26.82,19.61L300.92,555.08c-1.36,1.91-2.49,3.99-3.36,6.22c-0.63,1.57-1.1,3.2-1.44,4.88
	c-0.34,1.81-0.52,3.67-0.52,5.59c0,13.8,9.68,25.37,22.61,28.22c2.02,0.47,4.14,0.71,6.32,0.71h186.56
	c14.29,0,25.97-11.17,26.8-25.24c0.02-0.54,0.05-1.07,0.05-1.61C537.93,564.04,532.67,555.47,524.84,550.77z"/>
<path class="st5" d="M266.69,614.48l17.75-29.87c0,0,4.41,29.03,40.07,29.87"/>
<path class="st5" d="M555.46,356.86c0,0,4.69-27.91-15.63-36.39c0,0,26.62-15.91,29.47-43.37"/>
<path class="st6" d="M303.14,297.03l22.32-46.43c0,0,9.15-20.32,20.98-26.34c11.83-6.03,12.5-8.93,43.31-9.26"/>
<path class="st7" d="M-922.48,19.9h-174.88c-12.73,0-23.06-10.32-23.06-23.06v-10.88c0-12.73,10.32-23.06,23.06-23.06h174.88
	c12.73,0,23.06,10.32,23.06,23.06v10.88C-899.43,9.58-909.75,19.9-922.48,19.9z"/>
</svg>
